<svg width="19" height="26" viewBox="0 0 19 26" fill="none" xmlns="http://www.w3.org/2000/svg">
<path d="M1.16667 3.64338H17.5C18.2 3.64338 18.6667 2.91471 18.6667 1.82169C18.6667 0.728676 18.2 0 17.5 0H1.16667C0.466667 0 0 0.728676 0 1.82169C0 2.91471 0.466667 3.64338 1.16667 3.64338Z" fill="#B51B47"/>
<path d="M1.16667 14.5736H17.5C18.2 14.5736 18.6667 13.8449 18.6667 12.7519C18.6667 11.6589 18.2 10.9302 17.5 10.9302H1.16667C0.466667 10.9302 0 11.6589 0 12.7519C0 13.8449 0.466667 14.5736 1.16667 14.5736Z" fill="#B51B47"/>
<path d="M1.16667 25.5037H17.5C18.2 25.5037 18.6667 24.7751 18.6667 23.682C18.6667 22.589 18.2 21.8604 17.5 21.8604H1.16667C0.466667 21.8604 0 22.589 0 23.682C0 24.7751 0.466667 25.5037 1.16667 25.5037Z" fill="#B51B47"/>
</svg>
